<svg width="817" height="537" viewBox="0 0 817 537" fill="none" xmlns="http://www.w3.org/2000/svg">
<g clip-path="url(#clip0_5_142)">
<path d="M54.2724 346.452C47.5583 346.452 40.6138 345.201 33.6199 342.749C26.4779 340.231 20.2081 336.167 15.008 330.637C9.8243 325.141 6.02293 318.707 3.71907 311.532L2.78107 308.635L21.2284 301.033L22.2652 304.538C23.3513 308.24 25.2437 311.927 27.8932 315.498C30.4274 318.937 34.0971 321.767 38.7871 323.923C43.5594 326.112 48.5786 327.231 53.7293 327.231C56.494 327.231 59.5219 326.869 62.7473 326.145C65.8411 325.454 68.8855 324.154 71.7818 322.261C74.6287 320.418 77.1136 317.867 79.2035 314.658C81.1782 311.614 82.182 307.78 82.182 303.287C82.182 297.939 80.6023 293.545 77.3275 289.875C74.0363 286.173 69.2146 283.638 62.9777 282.355L55.9509 280.956L61.0852 261.752L69.3627 263.463C79.8124 265.652 88.0404 270.309 93.8659 277.303C99.6914 284.313 102.654 292.887 102.654 302.761C102.654 305.624 102.259 308.899 101.502 312.47C100.712 316.123 99.2635 319.891 97.2065 323.643C95.1166 327.445 92.1216 331.098 88.3202 334.505C84.4859 337.96 79.5162 340.84 73.5755 343.078C67.6348 345.316 61.1511 346.452 54.2889 346.452H54.2724ZM39.6593 277.105C29.44 274.653 21.3765 269.782 15.6333 262.608C9.89013 255.433 6.97739 247.336 6.97739 238.549C6.97739 230.485 8.93567 223.343 12.8193 217.287C16.6536 211.297 22.15 206.426 29.1274 202.806C36.0719 199.202 44.0367 197.392 52.8243 197.392C59.308 197.392 66.0386 198.642 72.802 201.111C79.7136 203.629 85.7201 207.693 90.6241 213.19C95.5115 218.67 98.9673 224.956 100.909 231.9L101.716 234.78L83.877 241.642L82.8568 238.236C80.7833 231.242 77.0148 225.976 71.3703 222.175C65.693 218.357 59.4561 216.415 52.8243 216.415C49.6976 216.415 45.9949 217.09 41.8315 218.423C37.915 219.673 34.6237 222.01 31.7604 225.565C28.9793 229.02 27.6134 233.151 27.6134 238.203C27.6134 240.885 28.2223 243.699 29.44 246.579C30.6084 249.36 32.4351 251.648 35.0351 253.59C37.7175 255.581 40.7783 256.963 44.1354 257.704L51.804 259.629L46.6861 278.718L39.6264 277.122L39.6593 277.105Z" fill="black"/>
<path d="M99.3623 302.76C99.3623 305.41 99.0002 308.421 98.2761 311.778C97.5521 315.152 96.2356 318.575 94.3102 322.064C92.3848 325.552 89.6531 328.893 86.0986 332.069C82.5441 335.261 77.9857 337.894 72.3906 340.001C66.7955 342.107 60.7561 343.16 54.2724 343.16C47.7886 343.16 41.3872 341.992 34.706 339.639C28.0248 337.285 22.2651 333.533 17.3941 328.366C12.5231 323.199 9.00146 317.242 6.8457 310.511L19.1055 305.459C20.3068 309.54 22.3474 313.539 25.2437 317.456C28.1235 321.372 32.1882 324.516 37.4213 326.918C42.6543 329.321 48.0848 330.522 53.7458 330.522C56.7572 330.522 59.9991 330.127 63.4878 329.354C66.9765 328.58 70.35 327.132 73.5919 325.026C76.8338 322.919 79.6313 320.072 81.9845 316.452C84.3213 312.848 85.5062 308.454 85.5062 303.287C85.5062 297.149 83.6137 291.949 79.8288 287.687C76.0439 283.424 70.6627 280.561 63.6853 279.113L60.0814 278.389L63.5043 265.586L68.7373 266.672C78.4794 268.713 86.0163 272.958 91.3646 279.393C96.7128 285.827 99.3952 293.611 99.3952 302.744L99.3623 302.76ZM97.7495 232.789L86.0328 237.298C83.7454 229.613 79.4832 223.656 73.2299 219.443C66.9765 215.23 60.1801 213.124 52.8571 213.124C49.3684 213.124 45.3696 213.848 40.8606 215.296C36.3516 216.744 32.4679 219.476 29.2261 223.508C25.9842 227.539 24.3551 232.427 24.3551 238.203C24.3551 241.33 25.0462 244.539 26.4285 247.846C27.8109 251.154 30.0324 253.951 33.0933 256.239C36.1541 258.526 39.6099 260.09 43.4607 260.929L47.7886 262.015L44.3658 274.818L40.3998 273.913C30.9046 271.625 23.4993 267.182 18.2169 260.567C12.918 253.951 10.285 246.628 10.285 238.565C10.285 231.11 12.0623 224.627 15.6004 219.097C19.1385 213.568 24.174 209.125 30.6578 205.751C37.158 202.394 44.5468 200.699 52.8407 200.699C58.9788 200.699 65.2486 201.868 71.683 204.221C78.1173 206.558 83.6137 210.293 88.1885 215.395C92.7633 220.513 95.9394 226.305 97.7495 232.789Z" fill="black"/>
<path d="M178.467 343.802C168.725 342.798 159.592 340.165 151.347 335.986C143.07 331.789 135.911 326.276 130.07 319.612C124.244 312.98 119.735 305.41 116.658 297.133C113.597 288.872 112.034 280.281 112.034 271.642C112.034 265.24 113.07 258.23 115.127 250.841C117.217 243.337 120.871 235.981 126.005 228.955C131.156 221.911 137.162 216.201 143.86 211.972C150.475 207.792 156.794 204.813 162.653 203.118C168.429 201.44 173.777 200.403 178.549 200.025L182.104 199.745V220.677L179.175 221.006C173.958 221.582 168.495 222.998 162.9 225.219C157.42 227.391 152.006 230.962 146.805 235.833C141.671 240.639 137.787 246.365 135.27 252.833C132.719 259.399 131.435 265.784 131.435 271.839C131.435 276.315 132.176 281.269 133.657 286.551C135.105 291.718 137.985 297.215 142.231 302.859C146.41 308.438 151.89 313.013 158.506 316.436C165.203 319.891 172.164 322.064 179.191 322.854L182.12 323.183V344.197L178.5 343.819L178.467 343.802ZM191.204 323.166L194.133 322.837C201.16 322.047 207.759 320.089 213.749 317.044C219.739 314 224.873 310.116 229.037 305.509C233.2 300.901 236.442 295.602 238.68 289.76C240.935 283.918 242.07 277.895 242.07 271.823C242.07 265.751 240.935 259.761 238.68 253.984C236.426 248.192 233.184 242.877 229.02 238.219C224.873 233.562 219.739 229.695 213.766 226.717C207.776 223.722 201.16 221.796 194.133 221.006L191.204 220.677V199.712L194.792 200.041C204.55 200.913 213.716 203.48 222.043 207.677C230.37 211.873 237.545 217.304 243.387 223.837C249.229 230.37 253.754 237.89 256.831 246.168C259.892 254.445 261.456 263.019 261.456 271.658C261.456 280.298 259.909 288.904 256.831 297.231C253.754 305.575 249.245 313.144 243.403 319.743C237.561 326.342 230.37 331.839 222.059 336.084C213.733 340.346 204.55 342.946 194.792 343.819L191.204 344.131V323.166Z" fill="black"/>
<path d="M178.796 203.299V217.731C173.267 218.34 167.557 219.805 161.665 222.158C155.774 224.495 150.064 228.263 144.535 233.431C139.005 238.598 134.891 244.67 132.176 251.648C129.477 258.625 128.111 265.356 128.111 271.839C128.111 276.645 128.901 281.845 130.448 287.44C132.011 293.035 135.039 298.827 139.548 304.85C144.057 310.857 149.866 315.695 156.959 319.365C164.052 323.034 171.325 325.289 178.78 326.128V340.56C169.4 339.606 160.744 337.104 152.812 333.073C144.88 329.041 138.117 323.841 132.521 317.472C126.926 311.104 122.664 303.945 119.719 296.013C116.773 288.082 115.308 279.969 115.308 271.675C115.308 265.537 116.296 258.905 118.287 251.746C120.278 244.588 123.734 237.66 128.654 230.913C133.591 224.182 139.236 218.801 145.604 214.769C151.973 210.738 157.963 207.907 163.541 206.294C169.136 204.665 174.205 203.678 178.78 203.316L178.796 203.299ZM194.495 217.731V203.299C203.875 204.139 212.564 206.574 220.546 210.606C228.543 214.638 235.34 219.772 240.918 226.025C246.513 232.279 250.775 239.371 253.721 247.303C256.667 255.235 258.148 263.348 258.148 271.642C258.148 279.936 256.667 288.082 253.721 296.079C250.775 304.077 246.513 311.235 240.918 317.538C235.323 323.841 228.543 329.057 220.546 333.139C212.548 337.236 203.859 339.688 194.495 340.527V326.095C201.95 325.256 208.862 323.215 215.23 319.957C221.599 316.715 227.013 312.618 231.456 307.697C235.899 302.76 239.338 297.182 241.741 290.928C244.144 284.675 245.345 278.307 245.345 271.806C245.345 265.306 244.144 258.971 241.741 252.783C239.338 246.596 235.916 241.001 231.456 236.014C227.013 231.028 221.599 226.947 215.23 223.754C208.862 220.578 201.95 218.554 194.495 217.715V217.731Z" fill="black"/>
<path d="M297.429 200.996H276.414V342.831H297.429V200.996Z" fill="black"/>
<path d="M294.137 204.287H279.705V339.54H294.137V204.287Z" fill="black"/>
<path d="M417.526 323.627H306.529V342.831H417.526V323.627Z" fill="black"/>
<path d="M414.235 326.918H309.82V339.54H414.235V326.918Z" fill="black"/>
<path d="M379.479 516.345H180.294V535.549H379.479V516.345Z" fill="black"/>
<path d="M376.188 519.636H183.585V532.258H376.188V519.636Z" fill="black"/>
<path d="M425.244 339.161L468.984 229.712L488.913 236.788L469.083 285.942H506.274V305.147H461.563L445.172 346.238L425.26 339.161H425.244ZM479.138 204.83L499.083 198.017L556.185 339.161L536.274 346.238L479.154 204.83H479.138Z" fill="black"/>
<path d="M502.966 289.234V301.855H459.324L443.28 342.074L429.572 337.203L470.877 233.875L484.585 238.746L464.212 289.234H502.983H502.966ZM497.19 202.131L551.825 337.203L538.117 342.074L483.466 206.821L497.174 202.131H497.19Z" fill="black"/>
<path d="M594.413 276.974L611.676 264.681L664.319 334.685L647.056 346.978L594.413 276.974ZM568.017 342.831V200.996H589.032V342.831H568.017ZM622.833 262.459L626.371 261.094C628.165 260.402 630.057 259.201 631.999 257.523C633.826 255.943 635.356 253.738 636.541 250.973C637.742 248.159 638.351 245.131 638.351 241.988C638.351 239.256 637.775 236.261 636.656 233.085C635.586 230.074 633.941 227.539 631.769 225.581C629.547 223.573 627.227 222.158 624.857 221.418C622.372 220.628 619.887 220.216 617.468 220.216H598.132V201.012H618.011C622.405 201.012 626.98 201.72 631.588 203.135C636.327 204.583 641.033 207.298 645.575 211.182C650.167 215.115 653.655 219.97 655.943 225.598C658.197 231.143 659.349 236.656 659.349 241.988C659.349 247.715 658.131 253.359 655.729 258.74C653.31 264.171 650.134 268.565 646.283 271.823C642.547 274.983 638.845 277.319 635.307 278.751L632.624 279.837L622.849 262.459H622.833Z" fill="black"/>
<path d="M585.741 204.287V339.54H571.309V204.287H585.741ZM610.984 269.206L659.678 333.945L647.78 342.42L599.087 277.681L610.984 269.206ZM656.058 241.988C656.058 247.27 654.939 252.421 652.717 257.407C650.496 262.394 647.632 266.36 644.144 269.305C640.655 272.251 637.298 274.39 634.039 275.707L627.539 264.171C629.711 263.332 631.9 261.949 634.122 260.024C636.343 258.099 638.154 255.515 639.536 252.273C640.918 249.031 641.609 245.608 641.609 241.988C641.609 238.861 640.984 235.521 639.717 231.983C638.45 228.445 636.524 225.482 633.941 223.146C631.357 220.809 628.642 219.18 625.828 218.275C622.997 217.37 620.2 216.925 617.435 216.925H601.39V204.303H617.978C622.059 204.303 626.272 204.962 630.6 206.295C634.928 207.611 639.19 210.079 643.403 213.683C647.616 217.287 650.759 221.681 652.865 226.848C654.972 232.016 656.025 237.068 656.025 242.004L656.058 241.988Z" fill="black"/>
<path d="M700.473 200.996H679.458V342.831H700.473V200.996Z" fill="black"/>
<path d="M697.182 204.287V339.54H682.75V204.287H697.182Z" fill="black"/>
<path d="M766.61 346.452C759.896 346.452 752.952 345.201 745.958 342.749C738.816 340.231 732.546 336.167 727.346 330.637C722.162 325.141 718.361 318.707 716.057 311.532L715.119 308.635L733.566 301.033L734.603 304.538C735.689 308.24 737.582 311.927 740.231 315.498C742.766 318.937 746.435 321.767 751.125 323.923C755.898 326.112 760.917 327.231 766.067 327.231C768.832 327.231 771.86 326.869 775.085 326.145C778.179 325.454 781.224 324.154 784.12 322.261C786.967 320.418 789.452 317.867 791.542 314.658C793.516 311.614 794.52 307.78 794.52 303.287C794.52 297.939 792.94 293.545 789.666 289.875C786.374 286.173 781.553 283.638 775.316 282.355L768.289 280.956L773.423 261.752L781.701 263.463C792.15 265.652 800.379 270.309 806.204 277.303C812.029 284.313 814.992 292.887 814.992 302.761C814.992 305.624 814.597 308.899 813.84 312.47C813.05 316.123 811.602 319.891 809.545 323.643C807.455 327.445 804.46 331.098 800.658 334.505C796.824 337.96 791.854 340.84 785.914 343.078C779.973 345.316 773.489 346.452 766.627 346.452H766.61ZM751.997 277.105C741.778 274.653 733.715 269.782 727.971 262.608C722.228 255.433 719.315 247.336 719.315 238.549C719.315 230.485 721.274 223.343 725.157 217.287C728.992 211.297 734.488 206.426 741.465 202.806C748.41 199.202 756.375 197.392 765.162 197.392C771.646 197.392 778.377 198.642 785.14 201.111C792.052 203.629 798.058 207.693 802.962 213.19C807.85 218.67 811.305 224.956 813.247 231.9L814.054 234.78L796.215 241.642L795.195 238.236C793.121 231.242 789.353 225.976 783.708 222.175C778.031 218.357 771.794 216.415 765.162 216.415C762.036 216.415 758.333 217.09 754.17 218.423C750.253 219.673 746.962 222.01 744.098 225.565C741.317 229.02 739.951 233.151 739.951 238.203C739.951 240.885 740.56 243.699 741.778 246.579C742.947 249.36 744.773 251.648 747.373 253.59C750.056 255.581 753.116 256.963 756.473 257.704L764.142 259.629L759.024 278.718L751.965 277.122L751.997 277.105Z" fill="black"/>
<path d="M811.7 302.76C811.7 305.41 811.338 308.421 810.614 311.778C809.89 315.152 808.574 318.575 806.648 322.064C804.723 325.552 801.991 328.893 798.437 332.069C794.882 335.261 790.324 337.894 784.729 340.001C779.133 342.107 773.094 343.16 766.61 343.16C760.127 343.16 753.725 341.992 747.044 339.639C740.363 337.285 734.603 333.533 729.732 328.366C724.861 323.199 721.339 317.242 719.184 310.511L731.444 305.459C732.645 309.54 734.685 313.539 737.582 317.456C740.462 321.372 744.526 324.516 749.759 326.918C754.992 329.321 760.423 330.522 766.084 330.522C769.095 330.522 772.337 330.127 775.826 329.354C779.315 328.58 782.688 327.132 785.93 325.026C789.172 322.919 791.969 320.072 794.323 316.452C796.659 312.848 797.844 308.454 797.844 303.287C797.844 297.149 795.952 291.949 792.167 287.687C788.382 283.424 783.001 280.561 776.023 279.113L772.419 278.389L775.842 265.586L781.075 266.672C790.817 268.713 798.354 272.958 803.703 279.393C809.051 285.827 811.733 293.611 811.733 302.744L811.7 302.76ZM810.071 232.789L798.354 237.298C796.067 229.613 791.805 223.656 785.551 219.443C779.298 215.23 772.502 213.124 765.179 213.124C761.69 213.124 757.691 213.848 753.182 215.296C748.673 216.744 744.789 219.476 741.548 223.508C738.306 227.539 736.677 232.427 736.677 238.203C736.677 241.33 737.368 244.539 738.75 247.846C740.132 251.154 742.354 253.951 745.415 256.239C748.476 258.526 751.931 260.09 755.782 260.929L760.11 262.015L756.687 274.818L752.721 273.913C743.226 271.625 735.821 267.182 730.538 260.567C725.24 253.951 722.607 246.628 722.607 238.565C722.607 231.11 724.384 224.627 727.922 219.097C731.46 213.568 736.496 209.125 742.979 205.751C749.479 202.394 756.868 200.699 765.162 200.699C771.3 200.699 777.57 201.868 784.005 204.221C790.439 206.558 795.935 210.293 800.51 215.395C805.085 220.513 808.261 226.305 810.071 232.789Z" fill="black"/>
<path d="M0 142.527L43.7405 33.0769L63.6689 40.153L43.8392 89.3076H81.0301V108.512H36.3187L19.9284 149.603L0.0164562 142.527H0ZM53.8939 8.19515L73.8388 1.36584L130.942 142.51L111.03 149.587L53.8939 8.19515Z" fill="black"/>
<path d="M77.7224 92.5988V105.221H34.0807L18.0359 145.44L4.32794 140.569L45.6165 37.2403L59.3244 42.1113L38.9517 92.5988H77.7224ZM71.9463 5.49634L126.581 140.569L112.873 145.44L58.2548 10.1863L71.9628 5.49634H71.9463Z" fill="black"/>
<path d="M166.767 146.197V32.6819H187.781V146.213H166.767V146.197ZM124.754 23.5652V4.36084H229.794V23.5652H124.754Z" fill="black"/>
<path d="M226.503 7.6521V20.274H128.045V7.6521H226.503ZM184.49 35.9732V142.922H170.058V35.9732H184.49Z" fill="black"/>
<path d="M358.465 146.197V52.3306H379.479V146.197H358.465ZM245.213 146.197V52.3306H266.228V146.197H245.213ZM240.293 12.1117L257.407 0L312.519 77.8706L367.466 0L384.581 12.1117L312.535 113.235L240.293 12.1117Z" fill="black"/>
<path d="M368.256 4.59131L379.973 12.8852L312.519 107.558L244.901 12.8852L256.617 4.59131L312.519 83.5809L368.256 4.59131ZM262.937 55.6219V142.905H248.504V55.6219H262.937ZM376.188 55.6219V142.905H361.756V55.6219H376.188Z" fill="black"/>
<path d="M633.299 126.531L636.228 126.219C641.445 125.659 646.908 124.228 652.503 122.006C657.983 119.834 663.397 116.263 668.597 111.392C673.732 106.587 677.615 100.86 680.133 94.3925C682.684 87.8265 683.968 81.4415 683.968 75.3857C683.968 70.9096 683.227 65.9563 681.746 60.6739C680.298 55.5066 677.418 50.0103 673.172 44.3658C668.992 38.7872 663.513 34.2124 656.897 30.7895C650.199 27.3172 643.239 25.1615 636.212 24.3716L633.283 24.0424V3.01147L636.903 3.38997C646.645 4.39379 655.778 7.02678 664.023 11.2066C672.3 15.403 679.459 20.9158 685.3 27.5641C691.126 34.1959 695.635 41.7657 698.712 50.0432C701.773 58.3206 703.336 66.8943 703.336 75.5338C703.336 81.9352 702.3 88.9291 700.243 96.3344C698.169 103.838 694.499 111.194 689.365 118.221C684.214 125.264 678.208 130.975 671.51 135.204C664.895 139.384 658.576 142.362 652.717 144.057C646.941 145.736 641.593 146.772 636.821 147.151L633.266 147.431V126.499L633.299 126.531Z" fill="black"/>
<path d="M636.59 143.909V129.477C642.119 128.868 647.83 127.404 653.721 125.05C659.612 122.714 665.323 118.945 670.852 113.778C676.381 108.611 680.495 102.538 683.21 95.5609C685.909 88.5835 687.275 81.8529 687.275 75.3692C687.275 70.564 686.485 65.3638 684.938 59.7687C683.375 54.1736 680.347 48.381 675.838 42.3581C671.329 36.3516 665.52 31.5135 658.427 27.8438C651.335 24.174 644.061 21.9195 636.607 21.0803V6.66467C645.987 7.61913 654.643 10.1205 662.574 14.1522C670.506 18.184 677.27 23.3841 682.865 29.7527C688.46 36.1212 692.722 43.2796 695.668 51.2115C698.613 59.1434 700.078 67.2563 700.078 75.5502C700.078 81.6883 699.091 88.3202 697.099 95.4786C695.108 102.637 691.652 109.565 686.732 116.312C681.795 123.043 676.151 128.424 669.782 132.456C663.414 136.487 657.424 139.318 651.845 140.93C646.25 142.56 641.181 143.547 636.607 143.909H636.59Z" fill="black"/>
<path d="M463.619 147.184C453.861 146.312 444.695 143.745 436.368 139.548C428.041 135.352 420.866 129.921 415.024 123.388C409.182 116.855 404.657 109.335 401.596 101.057C398.535 92.7963 396.972 84.2226 396.972 75.5667C396.972 66.9107 398.519 58.3206 401.596 49.9938C404.673 41.6505 409.182 34.0807 415.024 27.4818C420.866 20.8829 428.058 15.3865 436.368 11.1408C444.695 6.87867 453.877 4.27859 463.636 3.40642L467.223 3.09375V24.0589L464.294 24.388C457.267 25.1779 450.668 27.1362 444.678 30.1806C438.688 33.225 433.554 37.1086 429.391 41.7164C425.227 46.3241 421.985 51.623 419.731 57.4649C417.476 63.3068 416.341 69.3298 416.341 75.4021C416.341 81.4744 417.476 87.4645 419.731 93.2406C421.985 99.0332 425.227 104.349 429.407 109.006C433.554 113.663 438.688 117.53 444.645 120.508C450.635 123.503 457.251 125.429 464.278 126.219L467.207 126.548V147.513L463.619 147.184Z" fill="black"/>
<path d="M463.916 129.477V143.909C454.536 143.07 445.847 140.634 437.865 136.603C429.868 132.571 423.071 127.437 417.493 121.183C411.898 114.93 407.636 107.837 404.69 99.9054C401.744 91.9736 400.263 83.8607 400.263 75.5668C400.263 67.2729 401.744 59.1271 404.69 51.1294C407.636 43.1317 411.898 35.9732 417.493 29.6705C423.088 23.3678 429.868 18.1512 437.865 14.0701C445.863 9.97251 454.552 7.52054 463.916 6.68127V21.1133C456.461 21.9526 449.549 23.9932 443.181 27.2515C436.812 30.4933 431.398 34.5909 426.955 39.5113C422.512 44.4482 419.073 50.0268 416.67 56.2801C414.267 62.5335 413.066 68.902 413.066 75.4022C413.066 81.9024 414.267 88.238 416.67 94.4255C419.073 100.613 422.495 106.208 426.955 111.194C431.398 116.181 436.812 120.262 443.181 123.454C449.549 126.63 456.461 128.654 463.916 129.494V129.477Z" fill="black"/>
<path d="M768.24 149.817C761.526 149.817 754.581 148.566 747.587 146.114C740.445 143.613 734.175 139.532 728.975 133.986C723.792 128.49 719.99 122.055 717.686 114.881L716.765 111.984L735.212 104.382L736.249 107.887C737.335 111.589 739.227 115.276 741.877 118.846C744.411 122.286 748.081 125.116 752.771 127.272C757.543 129.461 762.562 130.58 767.713 130.58C770.461 130.58 773.506 130.218 776.731 129.494C779.825 128.802 782.853 127.502 785.765 125.61C788.612 123.767 791.097 121.216 793.187 118.007C795.162 114.963 796.166 111.129 796.166 106.636C796.166 101.288 794.586 96.894 791.311 93.2242C788.02 89.5216 783.198 86.9874 776.961 85.6873L769.935 84.2885L775.069 65.1007L783.346 66.8121C793.796 69.0008 802.024 73.6579 807.85 80.6517C813.675 87.662 816.637 96.2357 816.637 106.109C816.637 108.973 816.242 112.231 815.485 115.819C814.695 119.472 813.247 123.24 811.19 126.992C809.1 130.794 806.105 134.447 802.304 137.853C798.47 141.309 793.5 144.189 787.559 146.427C781.618 148.665 775.135 149.801 768.273 149.801L768.24 149.817ZM753.627 80.4707C743.407 78.0187 735.327 73.1313 729.601 65.9728C723.857 58.7979 720.945 50.7015 720.945 41.9139C720.945 33.8504 722.903 26.7084 726.787 20.6526C730.621 14.6625 736.117 9.79149 743.095 6.15468C750.039 2.55078 758.004 0.740601 766.791 0.740601C773.275 0.740601 779.989 1.99127 786.769 4.45969C793.681 6.97749 799.671 11.0422 804.591 16.5385C809.479 22.0184 812.935 28.3047 814.876 35.2656L815.683 38.1455L797.844 45.0077L796.824 41.6013C794.751 34.6074 790.982 29.3414 785.338 25.54C779.66 21.7222 773.423 19.7968 766.791 19.7968C763.665 19.7968 759.962 20.4715 755.799 21.8045C751.882 23.0552 748.591 25.3919 745.728 28.9465C742.947 32.4023 741.581 36.5328 741.581 41.5848C741.581 44.2507 742.19 47.0812 743.407 49.961C744.576 52.7421 746.402 55.0295 749.002 56.9713C751.668 58.9625 754.746 60.3448 758.103 61.0853L765.771 62.9943L760.67 82.0999L753.61 80.5036L753.627 80.4707Z" fill="black"/>
<path d="M813.313 106.126C813.313 108.775 812.951 111.787 812.227 115.144C811.503 118.517 810.186 121.94 808.261 125.429C806.336 128.918 803.604 132.258 800.049 135.434C796.495 138.627 791.936 141.26 786.341 143.366C780.746 145.472 774.707 146.526 768.223 146.526C761.739 146.526 755.338 145.357 748.657 143.004C741.992 140.667 736.216 136.899 731.345 131.732C726.474 126.564 722.952 120.607 720.796 113.877L733.056 108.825C734.257 112.906 736.298 116.905 739.194 120.821C742.074 124.738 746.139 127.881 751.372 130.283C756.605 132.686 762.036 133.887 767.696 133.887C770.708 133.887 773.95 133.492 777.438 132.719C780.927 131.946 784.301 130.497 787.543 128.391C790.784 126.285 793.582 123.438 795.935 119.817C798.272 116.213 799.457 111.82 799.457 106.652C799.457 100.514 797.564 95.3141 793.779 91.052C789.995 86.7898 784.613 83.9264 777.636 82.4783L774.032 81.7542L777.455 68.9513L782.688 70.0374C792.43 72.078 799.967 76.3237 805.315 82.758C810.663 89.1924 813.346 96.9762 813.346 106.109L813.313 106.126ZM811.7 36.1542L799.983 40.6632C797.696 32.9782 793.434 27.021 787.181 22.8082C780.927 18.5955 774.131 16.4891 766.808 16.4891C763.319 16.4891 759.32 17.2131 754.811 18.6448C750.302 20.093 746.419 22.8247 743.177 26.8565C739.935 30.8882 738.306 35.7757 738.306 41.5518C738.306 44.6785 738.997 47.8874 740.379 51.1951C741.762 54.5028 743.983 57.3004 747.044 59.5878C750.105 61.8752 753.561 63.4385 757.411 64.2778L761.739 65.3639L758.316 78.1668L754.35 77.2617C744.855 74.9743 737.45 70.5311 732.168 63.9157C726.869 57.3004 724.236 49.9774 724.236 41.9138C724.236 34.4592 726.013 27.9755 729.551 22.4462C733.089 16.9169 738.125 12.4738 744.608 9.10026C751.109 5.7432 758.497 4.04822 766.791 4.04822C772.929 4.04822 779.199 5.21661 785.634 7.56984C792.068 9.90661 797.564 13.6422 802.139 18.7436C806.714 23.8614 809.89 29.654 811.7 36.1542Z" fill="black"/>
<path d="M54.2724 536.273C47.5583 536.273 40.5973 535.023 33.6199 532.571C26.4779 530.07 20.2081 525.988 15.008 520.443C9.8243 514.946 6.02293 508.512 3.71907 501.337L2.78107 498.441L21.2284 490.838L22.2652 494.343C23.3513 498.046 25.2437 501.732 27.8932 505.303C30.4274 508.742 34.0971 511.573 38.7871 513.729C43.5594 515.917 48.5786 517.036 53.7293 517.036C56.494 517.036 59.5219 516.674 62.7473 515.95C65.8411 515.259 68.8855 513.959 71.7818 512.066C74.6287 510.223 77.1136 507.673 79.2035 504.464C81.1782 501.419 82.182 497.585 82.182 493.093C82.182 487.744 80.6023 483.35 77.3275 479.681C74.0363 475.978 69.2146 473.444 62.9777 472.16L55.9509 470.745L61.0852 451.557L69.3627 453.269C79.8124 455.457 88.0569 460.114 93.8659 467.108C99.6914 474.119 102.654 482.692 102.654 492.566C102.654 495.429 102.259 498.704 101.502 502.275C100.712 505.928 99.2635 509.697 97.2065 513.449C95.1166 517.25 92.1216 520.903 88.3202 524.31C84.4859 527.766 79.5162 530.645 73.5755 532.883C67.6348 535.122 61.1511 536.257 54.2889 536.257L54.2724 536.273ZM39.6593 466.944C29.44 464.492 21.3601 459.604 15.6333 452.446C9.89013 445.271 6.97739 437.174 6.97739 428.387C6.97739 420.323 8.93567 413.181 12.8193 407.142C16.6536 401.152 22.15 396.281 29.1274 392.644C36.0719 389.04 44.0367 387.23 52.8243 387.23C59.308 387.23 66.0386 388.481 72.802 390.949C79.7136 393.467 85.7037 397.532 90.6241 403.028C95.5115 408.508 98.9673 414.811 100.909 421.755L101.716 424.635L83.877 431.497L82.8568 428.091C80.7833 421.097 77.0148 415.847 71.3703 412.029C65.693 408.212 59.4561 406.27 52.8243 406.27C49.6976 406.27 45.9949 406.944 41.8315 408.277C37.915 409.528 34.6237 411.865 31.7604 415.419C28.9793 418.875 27.6134 423.006 27.6134 428.058C27.6134 430.724 28.2223 433.554 29.44 436.434C30.6084 439.215 32.4351 441.502 35.0351 443.444C37.701 445.435 40.7783 446.818 44.1354 447.558L51.804 449.467L46.6861 468.573L39.6264 466.977L39.6593 466.944Z" fill="black"/>
<path d="M99.3623 492.582C99.3623 495.232 99.0002 498.227 98.2761 501.6C97.5521 504.974 96.2356 508.397 94.3102 511.885C92.3848 515.374 89.6531 518.715 86.0986 521.891C82.5441 525.083 77.9857 527.716 72.3906 529.823C66.7955 531.929 60.7561 532.982 54.2724 532.982C47.7886 532.982 41.3872 531.814 34.706 529.461C28.0412 527.124 22.2651 523.355 17.3941 518.188C12.5231 513.021 9.00146 507.064 6.8457 500.333L19.1055 495.281C20.3068 499.362 22.3474 503.361 25.2437 507.278C28.1235 511.194 32.1882 514.337 37.4213 516.74C42.6543 519.143 48.0848 520.344 53.7458 520.344C56.7572 520.344 59.9991 519.949 63.4878 519.176C66.9765 518.402 70.35 516.954 73.5919 514.848C76.8338 512.741 79.6313 509.894 81.9845 506.274C84.3378 502.654 85.5062 498.276 85.5062 493.109C85.5062 486.971 83.6137 481.787 79.8288 477.509C76.0439 473.246 70.6627 470.383 63.6853 468.935L60.0814 468.211L63.5043 455.408L68.7373 456.494C78.4794 458.535 86.0163 462.78 91.3646 469.215C96.7128 475.649 99.3952 483.433 99.3952 492.566L99.3623 492.582ZM97.7495 422.611L86.0328 427.12C83.7454 419.435 79.4832 413.478 73.2299 409.265C66.9765 405.052 60.1801 402.962 52.8571 402.962C49.3684 402.962 45.3696 403.686 40.8606 405.118C36.3516 406.566 32.4679 409.298 29.2261 413.329C25.9842 417.361 24.3551 422.249 24.3551 428.025C24.3551 431.152 25.0462 434.36 26.4285 437.668C27.8109 440.976 30.0324 443.773 33.0933 446.061C36.1541 448.348 39.6099 449.912 43.4607 450.751L47.7886 451.837L44.3658 464.64L40.3998 463.735C30.9046 461.447 23.4993 457.004 18.2169 450.389C12.918 443.773 10.285 436.45 10.285 428.387C10.285 420.932 12.0623 414.449 15.6004 408.919C19.1385 403.39 24.174 398.947 30.6578 395.573C37.158 392.216 44.5468 390.521 52.8407 390.521C58.9788 390.521 65.2486 391.69 71.683 394.043C78.1173 396.38 83.6137 400.115 88.1885 405.217C92.7633 410.334 95.9394 416.127 97.7495 422.627V422.611Z" fill="black"/>
<path d="M167.458 535.697C160.843 534.809 154.523 532.768 148.681 529.658C142.84 526.548 137.689 522.582 133.377 517.892C129.033 513.169 125.61 507.705 123.191 501.65C120.755 495.577 119.521 489.126 119.521 482.478V390.817H140.536V482.478C140.536 487.613 141.605 492.516 143.745 497.042C145.867 501.567 149.093 505.648 153.322 509.17C157.502 512.659 162.636 515.029 168.56 516.23L171.193 516.773V536.208L167.458 535.714V535.697Z" fill="black"/>
<path d="M167.886 519.455V532.439C161.632 531.6 155.741 529.707 150.212 526.762C144.683 523.816 139.877 520.113 135.78 515.67C131.699 511.227 128.506 506.142 126.219 500.432C123.931 494.722 122.796 488.748 122.796 482.495V394.125H137.228V482.495C137.228 488.139 138.396 493.471 140.75 498.457C143.086 503.443 146.575 507.87 151.216 511.704C155.84 515.555 161.402 518.139 167.902 519.455H167.886Z" fill="black"/>
<path d="M387.082 516.756L389.731 516.23C394.668 515.242 399.473 513.136 404.015 509.993C408.458 506.899 411.914 502.851 414.284 497.914C416.703 492.911 417.921 487.728 417.921 482.478V390.817H438.935V482.478C438.935 489.11 437.701 495.561 435.282 501.65C432.863 507.705 429.407 513.202 424.997 517.991C420.619 522.763 415.419 526.712 409.577 529.773C403.735 532.818 397.416 534.825 390.817 535.714L387.082 536.208V516.756Z" fill="black"/>
<path d="M435.627 394.125V482.495C435.627 488.748 434.476 494.722 432.205 500.432C429.917 506.142 426.708 511.26 422.561 515.769C418.414 520.278 413.576 523.981 408.047 526.861C402.518 529.74 396.626 531.616 390.373 532.456V519.472C395.787 518.386 400.954 516.131 405.875 512.708C410.812 509.285 414.597 504.842 417.229 499.362C419.879 493.899 421.195 488.271 421.195 482.495V394.125H435.627Z" fill="black"/>
<path d="M487.596 466.795L504.859 454.503L557.502 524.507L540.239 536.8L487.596 466.795ZM461.2 532.669V390.834H482.215V532.669H461.2ZM516.032 452.298L519.57 450.915C521.364 450.208 523.257 449.006 525.198 447.344C527.025 445.764 528.556 443.559 529.74 440.795C530.942 437.981 531.551 434.953 531.551 431.81C531.551 429.078 530.975 426.083 529.856 422.907C528.786 419.895 527.14 417.378 524.968 415.403C522.746 413.395 520.426 411.98 518.056 411.223C515.572 410.433 513.087 410.022 510.668 410.022H491.332V390.817H511.211C515.604 390.817 520.179 391.525 524.787 392.94C529.526 394.388 534.233 397.104 538.775 400.987C543.366 404.92 546.855 409.775 549.142 415.403C551.397 420.949 552.549 426.461 552.549 431.793C552.549 437.52 551.331 443.164 548.928 448.562C546.509 453.993 543.333 458.386 539.482 461.645C535.747 464.788 532.061 467.125 528.506 468.573L525.824 469.675L516.049 452.298H516.032Z" fill="black"/>
<path d="M478.907 394.125V529.378H464.475V394.125H478.907ZM504.167 459.045L552.861 523.783L540.963 532.258L492.27 467.52L504.167 459.045ZM549.241 431.81C549.241 437.109 548.122 442.243 545.9 447.229C543.679 452.215 540.815 456.181 537.327 459.127C533.838 462.073 530.481 464.212 527.223 465.528L520.722 453.993C522.895 453.153 525.083 451.771 527.305 449.846C529.526 447.92 531.337 445.337 532.719 442.095C534.101 438.853 534.792 435.414 534.792 431.81C534.792 428.683 534.167 425.342 532.9 421.804C531.633 418.266 529.707 415.304 527.124 412.967C524.54 410.631 521.825 409.002 519.011 408.096C516.181 407.191 513.383 406.747 510.618 406.747H494.574V394.125H511.161C515.242 394.125 519.455 394.783 523.783 396.116C528.111 397.433 532.373 399.901 536.586 403.505C540.799 407.109 543.942 411.503 546.048 416.67C548.155 421.837 549.208 426.889 549.208 431.826L549.241 431.81Z" fill="black"/>
<path d="M640.309 536.092C627.292 536.092 615.065 532.883 603.957 526.548C592.85 520.212 583.848 511.128 577.216 499.527C570.584 487.958 567.227 475.237 567.227 461.727C567.227 448.216 570.519 435.496 577.019 423.878C583.535 412.227 592.471 403.094 603.595 396.742C614.703 390.406 626.864 387.197 639.766 387.197C649.673 387.197 659.398 389.254 668.68 393.335C677.961 397.416 686.09 403.225 692.87 410.631L694.993 412.951L680.676 427.268L678.372 424.52C673.534 418.793 667.659 414.284 660.929 411.141C654.182 407.998 647.138 406.401 639.964 406.401C632.789 406.401 625.581 407.882 619.245 410.795C612.893 413.724 607.38 417.789 602.838 422.89C598.264 428.025 594.676 434.048 592.191 440.778C589.69 447.525 588.423 454.585 588.423 461.727C588.423 468.869 589.723 475.879 592.257 482.56C594.808 489.242 598.445 495.232 603.085 500.383C607.677 505.484 613.272 509.565 619.673 512.494C626.058 515.407 633.068 516.888 640.49 516.888C650.89 516.888 660.517 513.613 669.074 507.179C677.648 500.745 683.638 491.71 686.913 480.322L687.933 476.784L707.286 484.733L706.397 487.613C704.636 493.257 701.97 499 698.482 504.678C694.944 510.437 690.303 515.687 684.691 520.278C679.096 524.869 672.497 528.671 665.059 531.616C657.539 534.578 649.228 536.076 640.309 536.076V536.092ZM638.466 471.535V452.15H710.692V471.535H638.466Z" fill="black"/>
<path d="M690.089 481.227L703.254 486.642C701.575 492.056 699.041 497.486 695.684 502.966C692.311 508.446 687.95 513.366 682.601 517.76C677.253 522.154 671 525.758 663.841 528.588C656.683 531.419 648.85 532.834 640.309 532.834C627.802 532.834 616.234 529.79 605.587 523.734C594.939 517.678 586.448 509.071 580.063 497.947C573.695 486.823 570.502 474.777 570.502 461.793C570.502 448.809 573.629 436.73 579.882 425.54C586.135 414.366 594.577 405.727 605.225 399.654C615.872 393.582 627.375 390.538 639.766 390.538C649.261 390.538 658.46 392.496 667.363 396.396C676.266 400.313 683.951 405.809 690.451 412.902L680.89 422.463C675.723 416.324 669.535 411.585 662.311 408.212C655.103 404.854 647.632 403.159 639.947 403.159C632.262 403.159 624.643 404.723 617.863 407.849C611.067 410.976 605.241 415.271 600.37 420.735C595.499 426.215 591.747 432.517 589.098 439.676C586.448 446.834 585.132 454.19 585.132 461.76C585.132 469.33 586.481 476.669 589.196 483.762C591.895 490.854 595.713 497.141 600.65 502.604C605.587 508.084 611.478 512.379 618.324 515.506C625.186 518.632 632.575 520.196 640.507 520.196C651.68 520.196 661.883 516.74 671.082 509.828C680.281 502.917 686.617 493.389 690.105 481.244L690.089 481.227ZM707.401 455.441V468.244H641.757V455.441H707.401Z" fill="black"/>
<path d="M727.198 532.67V390.834H812.951V410.038H748.213V513.465H812.951V532.67H727.198ZM757.313 471.354V452.15H802.666V471.354H757.313Z" fill="black"/>
<path d="M809.66 516.756V529.378H730.489V394.125H809.66V406.747H744.921V516.756H809.66ZM799.375 455.441V468.063H760.604V455.441H799.375Z" fill="black"/>
</g>
<defs>
<clipPath id="clip0_5_142">
<rect width="816.604" height="536.8" fill="white"/>
</clipPath>
</defs>
</svg>
